<?xml version="1.0" encoding="UTF-8"?>
<svg width="143px" height="78px" viewBox="0 0 143 78" version="1.1" xmlns="http://www.w3.org/2000/svg" xmlns:xlink="http://www.w3.org/1999/xlink">
    <!-- Generator: Sketch 44.1 (41455) - http://www.bohemiancoding.com/sketch -->
    <title>Fill 19</title>
    <desc>Created with Sketch.</desc>
    <defs></defs>
    <g id="Home-Measure-Guide" stroke="none" stroke-width="1" fill="none" fill-rule="evenodd">
        <g id="Cospa-Monkey-Home" transform="translate(-592.000000, -4098.000000)" fill="#FFFFFF">
            <path d="M645.79422,4141.3807 C648.86022,4141.4477 651.84322,4140.8237 654.78822,4140.1057 C659.78922,4138.8857 664.38222,4136.6167 668.90522,4134.2297 C670.46922,4133.4027 671.78422,4132.2327 672.66822,4130.6347 C674.48822,4127.3437 673.15522,4123.5777 669.66322,4122.4097 C667.68422,4121.7477 665.63322,4121.3617 663.52722,4121.6747 C661.78922,4121.9327 660.04122,4122.1617 658.32722,4122.5437 C650.28522,4124.3337 645.18222,4129.3907 642.47822,4137.0247 C642.16322,4137.9107 642.08822,4138.8907 641.96322,4139.8347 C641.85822,4140.6237 642.54322,4141.3407 643.40222,4141.3737 C644.19822,4141.4037 644.99622,4141.3807 645.79422,4141.3807 M711.57622,4149.1447 C707.70722,4149.2797 702.61622,4148.6737 697.51222,4148.3487 C697.03722,4148.3177 696.56422,4148.2247 696.09522,4148.1367 C695.33322,4147.9927 694.69022,4147.1567 694.74422,4146.4057 C694.91222,4144.0647 696.46722,4142.3037 698.59922,4142.2947 C700.83422,4142.2857 703.07322,4142.4317 705.30522,4142.5957 C713.92822,4143.2297 722.54922,4143.3877 731.17322,4142.6097 C734.14322,4142.3417 734.92822,4143.2227 734.44522,4146.1797 C733.79622,4150.1567 732.57422,4153.9717 730.68522,4157.5077 C727.74822,4163.0037 724.62822,4168.4017 721.53922,4173.8167 C721.15622,4174.4857 720.53922,4175.0577 719.93322,4175.5557 C719.42922,4175.9697 718.76722,4176.0427 718.14522,4175.6847 C717.54322,4175.3377 717.17422,4174.7607 717.23522,4174.1207 C717.31122,4173.3457 717.49222,4172.5247 717.85422,4171.8427 C718.90222,4169.8667 720.10422,4167.9727 721.17522,4166.0087 C723.39622,4161.9427 725.57722,4157.8547 727.74622,4153.7587 C727.85322,4153.5577 727.68122,4153.2067 727.63922,4152.9267 C727.36022,4153.0187 727.01122,4153.0337 726.81422,4153.2147 C722.29722,4157.3527 717.17222,4160.5737 711.74022,4163.3587 C704.84022,4166.8957 697.51222,4169.0267 689.87022,4170.1677 C686.23522,4170.7107 682.61022,4171.3407 678.96222,4171.7667 C672.42022,4172.5297 665.87522,4172.5517 659.39422,4171.1977 C655.45922,4170.3777 651.72922,4168.9777 648.25822,4166.9157 C642.13922,4163.2817 638.33722,4158.0107 636.95322,4151.0167 C636.82922,4150.3897 636.79322,4149.7387 636.60922,4149.1317 C636.36622,4148.3207 635.80722,4147.7217 634.94822,4147.5907 C632.89722,4147.2777 630.82822,4147.0727 628.77922,4146.7447 C618.10622,4145.0407 609.82822,4139.3997 603.31122,4131.0057 C597.82322,4123.9387 594.28322,4115.9647 592.70422,4107.1437 C592.42422,4105.5727 592.13522,4103.9937 592.01422,4102.4067 C591.88322,4100.6887 592.66422,4099.3287 594.07222,4098.3257 C595.05022,4097.6317 596.52322,4098.0987 596.74822,4099.2347 C597.15022,4101.2717 597.42522,4103.3357 597.88422,4105.3587 C599.93922,4114.4237 603.89322,4122.5197 610.29122,4129.3437 C612.59822,4131.8047 615.16822,4133.9537 617.99022,4135.8027 C623.21122,4139.2237 629.04322,4140.7017 635.17822,4141.2057 C636.10722,4141.2817 636.66022,4140.8547 636.94122,4139.9497 C637.27322,4138.8817 637.54722,4137.7957 637.88822,4136.7307 C641.60622,4125.1057 649.64822,4118.4517 661.50122,4116.1287 C664.37322,4115.5667 667.22122,4115.3717 670.04522,4116.2057 C671.41122,4116.6097 672.80122,4117.0867 674.02122,4117.8017 C677.41222,4119.7877 678.99322,4123.3597 678.26522,4127.2167 C677.56322,4130.9387 675.77822,4134.1077 673.08922,4136.7657 C671.14022,4138.6927 668.90622,4140.2377 666.48122,4141.4917 C660.31522,4144.6807 653.81222,4146.7657 646.87122,4147.4107 C645.60722,4147.5277 644.35122,4147.7677 643.09922,4147.9927 C642.50522,4148.1007 642.13422,4148.9047 642.33622,4149.5117 C642.43822,4149.8147 642.52722,4150.1207 642.63722,4150.4207 C644.67422,4155.9727 648.52622,4159.8347 653.78922,4162.3767 C658.77222,4164.7817 664.11722,4165.6527 669.56522,4166.0527 C674.70222,4166.4287 679.78622,4165.8127 684.85522,4165.0997 C688.49222,4164.5877 692.10822,4163.9247 695.74122,4163.3687 C698.60722,4162.9307 701.39722,4162.1787 703.97922,4160.9017 C708.99022,4158.4207 713.95522,4155.8427 718.87122,4153.1787 C720.39322,4152.3537 721.69422,4151.1237 723.08422,4150.0617 C723.16422,4149.9997 723.15722,4149.7657 723.12422,4149.6277 C723.09422,4149.5067 722.98222,4149.3227 722.88822,4149.3117 C722.25822,4149.2347 721.62322,4149.1547 720.98922,4149.1517 C718.27222,4149.1357 715.55322,4149.1447 711.57622,4149.1447" id="Fill-19"></path>
        </g>
    </g>
</svg>