<?xml version="1.0" encoding="UTF-8"?>
<svg width="28px" height="100px" viewBox="0 0 28 100" version="1.1" xmlns="http://www.w3.org/2000/svg" xmlns:xlink="http://www.w3.org/1999/xlink">
    <!-- Generator: Sketch 44.1 (41455) - http://www.bohemiancoding.com/sketch -->
    <title>Fill 61</title>
    <desc>Created with Sketch.</desc>
    <defs></defs>
    <g id="Home-Measure-Guide" stroke="none" stroke-width="1" fill="none" fill-rule="evenodd">
        <g id="Cospa-Monkey-Home" transform="translate(-706.000000, -1121.000000)" fill="#EF5634">
            <path d="M744.678421,1166.18812 C744.757766,1166.64316 744.874395,1167.36874 745.022571,1168.08763 C745.04647,1168.20139 745.200381,1168.31898 745.32179,1168.37347 C745.431726,1168.42318 745.685059,1168.41936 745.693663,1168.38876 C746.165913,1166.66515 746.93069,1164.99124 746.698389,1163.1443 C746.671622,1162.93208 746.329384,1162.72463 746.093259,1162.58124 C745.769184,1162.3824 745.545487,1162.53057 745.341865,1162.84891 C744.736735,1163.79341 744.947049,1164.88513 744.678421,1166.18812 M749.625574,1167.1699 C749.49843,1167.6737 749.42004,1167.82187 749.433423,1167.96049 C749.459235,1168.24059 749.448719,1168.61915 749.61697,1168.76064 C749.756542,1168.87727 750.23644,1168.81226 750.386527,1168.65548 C751.203883,1167.80753 751.97822,1166.91848 752.737261,1166.017 C752.974342,1165.73499 752.832858,1165.47688 752.547979,1165.24171 C751.23065,1164.15381 750.275634,1164.33831 749.914277,1165.7847 C749.770881,1166.3621 749.670504,1166.95003 749.625574,1167.1699 M760.589612,1169.59807 C760.527474,1169.47092 760.49975,1169.2826 760.398418,1169.22428 C759.765564,1168.85432 759.134623,1168.47289 758.461619,1168.19279 C758.276161,1168.11536 757.817294,1168.29795 757.714049,1168.48627 C757.065901,1169.68124 756.974127,1171.00239 757.000894,1172.33215 C757.003762,1172.44591 757.141422,1172.59982 757.254227,1172.65622 C757.376591,1172.71549 757.599333,1172.748 757.68537,1172.67917 C758.605015,1171.93924 759.525615,1171.1955 760.398418,1170.40204 C760.566669,1170.24909 760.531298,1169.87243 760.589612,1169.59807 M753.208555,1172.96691 C753.208555,1172.31781 753.296505,1171.8121 752.790796,1171.67444 C752.57379,1171.61612 752.211477,1171.83982 752.005943,1172.03197 C749.831108,1174.06341 748.137126,1176.64071 745.263475,1177.87869 C744.875351,1178.04503 744.760634,1179.14536 745.017791,1179.53922 C745.338041,1180.02867 745.78926,1179.91013 746.210843,1179.72276 C747.722234,1179.05454 749.220242,1178.35572 750.734501,1177.69419 C751.775554,1177.24106 752.438042,1176.53077 752.635928,1175.37309 C752.787928,1174.48786 753.048908,1173.6208 753.208555,1172.96691 M693.878888,1172.11801 C686.703365,1172.40002 679.52593,1172.6371 672.349452,1172.85793 C671.769177,1172.87514 671.124852,1172.70593 670.615319,1172.43157 C670.292201,1172.25758 670.007321,1171.73275 669.988202,1171.35036 C669.968126,1170.9565 670.182264,1170.3877 670.488175,1170.17834 C670.964249,1169.85236 671.597102,1169.63153 672.176421,1169.59807 C677.972476,1169.27973 683.768532,1168.94992 689.568412,1168.73769 C704.224412,1168.20139 723.041916,1167.46625 734.609172,1168.55702 C736.28021,1168.7138 737.941689,1168.97764 739.610815,1169.15737 C740.676724,1169.27304 741.297149,1168.71093 741.33252,1167.55516 C741.400394,1165.26369 741.408042,1162.97223 741.463488,1160.68077 C741.477828,1160.07564 741.546658,1159.46764 741.648947,1158.87111 C741.756972,1158.23826 742.738754,1157.52415 743.384035,1157.64173 C744.123957,1157.77652 744.886823,1157.92088 745.569386,1158.21914 C748.786231,1159.62824 751.999251,1161.04786 755.175945,1162.54395 C759.317214,1164.49605 763.427891,1166.51602 767.541437,1168.52929 C768.221133,1168.86197 768.87215,1169.27399 769.486839,1169.71757 C770.13212,1170.18504 770.156019,1171.71841 769.540374,1172.20978 C769.068124,1172.58644 768.572931,1172.96404 768.031851,1173.2212 C762.243443,1175.98205 756.441651,1178.71421 750.649419,1181.46454 C749.270908,1182.11843 747.930636,1182.85453 746.537786,1183.47208 C745.708002,1183.84109 744.819905,1184.09442 743.938499,1184.32481 C743.059961,1184.55233 741.943386,1183.91183 741.80955,1183.03712 C741.601148,1181.68729 741.47018,1180.31833 741.411866,1178.95321 C741.340168,1177.27834 741.416646,1175.59679 741.347816,1173.92097 C741.321049,1173.28621 740.907113,1172.76711 740.218813,1172.6763 C737.49525,1172.31781 734.775511,1171.84843 732.038565,1171.68017 C725.025557,1171.24999 704.410826,1171.70503 693.878888,1172.11801 Z" id="Fill-61" transform="translate(719.986900, 1171.000000) rotate(-270.000000) translate(-719.986900, -1171.000000) "></path>
        </g>
    </g>
</svg>