<?xml version="1.0" encoding="UTF-8"?>
<svg width="99px" height="141px" viewBox="0 0 99 141" version="1.1" xmlns="http://www.w3.org/2000/svg" xmlns:xlink="http://www.w3.org/1999/xlink">
    <!-- Generator: Sketch 44.1 (41455) - http://www.bohemiancoding.com/sketch -->
    <title>Group 16</title>
    <desc>Created with Sketch.</desc>
    <defs></defs>
    <g id="Home-Measure-Guide" stroke="none" stroke-width="1" fill="none" fill-rule="evenodd">
        <g id="Cospa-Monkey-Home" transform="translate(-145.000000, -480.000000)">
            <g id="Group-16" transform="translate(145.000000, 480.000000)">
                <circle id="Oval-6-Copy-2" fill="#FEAC00" cx="78.3832721" cy="20.9858193" r="20.2182904"></circle>
                <g id="Lab-Copy" transform="translate(0.398438, 51.932182)" fill-rule="nonzero" fill="#000000">
                    <g id="Layer_1">
                        <path d="M87.2687434,72.2241578 C87.2241807,72.1564705 87.316007,72.2904915 87.2687434,72.2241578 L60.5283851,33.5462411 L60.5283851,2.75254919 C60.5283851,1.25665832 59.8005266,0.153354197 58.3096997,0.153354197 L32.6510011,0.153354197 C31.1601742,0.153354197 30.8198767,1.25801207 30.8198767,2.75254919 L30.8198767,32.6663053 L2.57113636,72.2593553 C2.52387283,72.3256889 2.27810244,72.6343433 2.23624045,72.7060919 C-0.0432123759,76.6671568 -0.569863207,80.315506 1.17618686,83.3465464 C2.93979195,86.4073693 6.46295096,88.1469347 11.0974783,88.1469347 L77.8754532,88.1469347 C82.5059294,88.1469347 86.1371193,86.4046618 87.9007244,83.3397777 C89.6508257,80.3006148 89.5481963,76.1879302 87.2687434,72.2241578 L87.2687434,72.2241578 Z M35.2950584,35.0827444 C35.6151,34.6251778 36.2227741,34.0809713 36.2227741,33.5232274 L36.2227741,5.56834376 L55.1281885,5.56834376 L55.1281885,34.404517 C55.1281885,34.9622609 54.8662135,35.5200048 55.1876055,35.9762177 L67.5976597,53.9296156 C63.4708778,55.5974324 58.3853213,56.7047977 47.9751899,50.4680835 C40.4332799,45.9506285 31.096706,47.6956089 24.7498883,49.8602509 L35.2950584,35.0827444 L35.2950584,35.0827444 Z M83.1163042,80.6322829 C82.3681899,81.9318804 80.4573927,82.7319451 77.8768036,82.7319451 L11.0988287,82.7319451 C8.51283804,82.7319451 6.6020408,81.9345879 5.85527693,80.6376979 C5.13687118,79.3895428 5.41775162,77.4008879 6.62634776,75.256552 L21.868163,53.8984794 C27.1913875,51.5944013 38.3685386,47.8688885 46.5910435,52.7938215 C53.14312,56.7169815 57.8897294,57.9570141 61.6019426,57.9570141 C64.6956786,57.9570141 67.0710089,57.094677 69.173561,56.2093262 L82.3465837,75.2646745 C83.5578807,77.4090104 83.8387611,79.3787128 83.1163042,80.6322829 Z" id="Shape"></path>
                        <path d="M25.6924582,64.4143891 C21.6137402,64.4181209 18.3082148,67.7318726 18.3044923,71.8207411 C18.3089578,75.9093007 21.6140484,79.2226166 25.6924582,79.2270931 C29.770868,79.2226166 33.0759587,75.9093007 33.0804241,71.8207411 C33.0767016,67.7318726 29.7711762,64.4181209 25.6924582,64.4143891 L25.6924582,64.4143891 Z M25.6924582,76.5195983 C23.107818,76.5195983 21.0052658,74.4104599 21.0052658,71.8193874 C21.0052658,69.2283149 23.107818,67.1205302 25.6924582,67.1205302 C28.2770985,67.1205302 30.3796506,69.2283149 30.3796506,71.8193874 C30.3796506,74.4104599 28.2770985,76.5195983 25.6924582,76.5195983 L25.6924582,76.5195983 Z" id="Shape"></path>
                        <path d="M64.5147268,66.4450102 C60.995357,66.4487409 58.1432724,69.3079234 58.1395509,72.8360517 C58.1440149,76.3638711 60.9956651,79.2226181 64.5147268,79.2270931 C68.0343158,79.2233638 70.8867875,76.3643989 70.891253,72.8360517 C70.8875303,69.3073955 68.0346239,66.4479948 64.5147268,66.4450102 L64.5147268,66.4450102 Z M64.5147268,76.5195983 C62.4891467,76.5195983 60.8403244,74.865319 60.8403244,72.8346979 C60.8403244,70.8040768 62.4891467,69.1511513 64.5147268,69.1511513 C66.5403069,69.1511513 68.1904795,70.8040768 68.1904795,72.8346979 C68.1904795,74.865319 66.5403069,76.5195983 64.5147268,76.5195983 L64.5147268,76.5195983 Z" id="Shape"></path>
                        <path d="M43.3163556,56.9687785 C40.3187361,56.9717634 37.8894281,59.4071171 37.8864505,62.4121967 C37.8894281,65.4172764 40.3187361,67.8526301 43.3163556,67.855615 C46.3101631,67.855615 48.7462607,65.412101 48.7462607,62.4121967 C48.7462607,59.4122925 46.3101631,56.9687785 43.3163556,56.9687785 L43.3163556,56.9687785 Z M43.3163556,65.149474 C41.810023,65.1472374 40.5894551,63.9236319 40.587224,62.4135505 C40.587224,60.9054759 41.8120248,59.677627 43.3163556,59.677627 C44.8206865,59.677627 46.0454873,60.9041222 46.0454873,62.4135505 C46.0454873,63.9229788 44.8206865,65.149474 43.3163556,65.149474 L43.3163556,65.149474 Z" id="Shape"></path>
                        <path d="M51.0770283,25.7662549 C51.8228263,25.7662549 52.427415,25.1601615 52.427415,24.4125075 L52.427415,9.52128615 C52.427415,8.77363211 51.8228263,8.16753876 51.0770283,8.16753876 C50.3312303,8.16753876 49.7266415,8.77363211 49.7266415,9.52128615 L49.7266415,24.4125075 C49.7266415,25.1601615 50.3312303,25.7662549 51.0770283,25.7662549 Z" id="Shape"></path>
                        <path d="M51.0770283,32.5349918 C51.8228263,32.5349918 52.427415,31.9288985 52.427415,31.1812444 L52.427415,29.827497 C52.427415,29.079843 51.8228263,28.4737496 51.0770283,28.4737496 C50.3312303,28.4737496 49.7266415,29.079843 49.7266415,29.827497 L49.7266415,31.1812444 C49.7266415,31.9288985 50.3312303,32.5349918 51.0770283,32.5349918 Z" id="Shape"></path>
                    </g>
                </g>
            </g>
        </g>
    </g>
</svg>